<svg width="72.000000" height="72.000000" viewBox="0 0 72 72" fill="none" xmlns="http://www.w3.org/2000/svg" xmlns:xlink="http://www.w3.org/1999/xlink">
	<defs/>
	<path id="path" d="M36 15.75C24.81 15.75 15.75 24.81 15.75 36C15.75 47.18 24.81 56.25 36 56.25C47.18 56.25 56.25 47.18 56.25 36C56.25 24.81 47.18 15.75 36 15.75ZM36 54C26.05 54 18 45.94 18 36C18 26.06 26.05 18 36 18C45.94 18 54 26.06 54 36C54 45.94 45.94 54 36 54Z" fill="#394240" fill-opacity="1.000000" fill-rule="evenodd"/>
	<path id="path" d="M70.87 34.87L59.62 34.87C59 34.87 58.5 35.37 58.5 36C58.5 36.62 59 37.12 59.62 37.12L70.87 37.12C71.49 37.12 72 36.62 72 36C72 35.37 71.49 34.87 70.87 34.87Z" fill="#394240" fill-opacity="1.000000" fill-rule="evenodd"/>
	<path id="path" d="M12.88 41.02L8.54 42.19C7.94 42.35 7.58 42.97 7.74 43.57C7.9 44.17 8.52 44.52 9.12 44.36L13.47 43.2C14.07 43.04 14.42 42.42 14.26 41.82C14.1 41.22 13.48 40.86 12.88 41.02Z" fill="#394240" fill-opacity="1.000000" fill-rule="evenodd"/>
	<path id="path" d="M55.48 24.75C55.79 25.28 56.48 25.47 57.02 25.16L66.76 19.53C67.3 19.22 67.48 18.53 67.17 18C66.86 17.46 66.17 17.27 65.64 17.58L55.89 23.21C55.35 23.52 55.17 24.21 55.48 24.75Z" fill="#394240" fill-opacity="1.000000" fill-rule="evenodd"/>
	<path id="path" d="M20.09 51.91C19.65 51.47 18.93 51.47 18.49 51.91L15.31 55.09C14.87 55.53 14.87 56.24 15.31 56.68C15.75 57.12 16.46 57.12 16.9 56.68L20.09 53.5C20.53 53.06 20.53 52.34 20.09 51.91Z" fill="#394240" fill-opacity="1.000000" fill-rule="evenodd"/>
	<path id="path" d="M47.25 16.51C47.78 16.82 48.47 16.64 48.78 16.1L54.41 6.35C54.72 5.82 54.54 5.13 54 4.82C53.46 4.51 52.77 4.69 52.46 5.23L46.84 14.97C46.52 15.51 46.71 16.2 47.25 16.51Z" fill="#394240" fill-opacity="1.000000" fill-rule="evenodd"/>
	<path id="path" d="M30.17 57.73C29.57 57.57 28.96 57.93 28.79 58.52L27.63 62.87C27.47 63.47 27.83 64.09 28.43 64.25C29.03 64.41 29.64 64.05 29.8 63.45L30.97 59.11C31.13 58.51 30.77 57.89 30.17 57.73Z" fill="#394240" fill-opacity="1.000000" fill-rule="evenodd"/>
	<path id="path" d="M36 13.5C36.62 13.5 37.12 12.99 37.12 12.37L37.12 1.12C37.12 0.5 36.62 0 36 0C35.38 0 34.87 0.5 34.87 1.12L34.87 12.37C34.87 12.99 35.38 13.5 36 13.5Z" fill="#394240" fill-opacity="1.000000" fill-rule="evenodd"/>
	<path id="path" d="M43.2 58.52C43.04 57.92 42.42 57.57 41.82 57.73C41.22 57.89 40.87 58.51 41.02 59.11L42.19 63.45C42.35 64.05 42.97 64.41 43.57 64.25C44.17 64.09 44.52 63.47 44.36 62.87L43.2 58.52Z" fill="#394240" fill-opacity="1.000000" fill-rule="evenodd"/>
	<path id="path" d="M23.21 16.1C23.52 16.63 24.21 16.82 24.75 16.51C25.29 16.2 25.47 15.51 25.16 14.97L19.53 5.23C19.22 4.69 18.54 4.51 18 4.82C17.46 5.13 17.27 5.82 17.58 6.35L23.21 16.1Z" fill="#394240" fill-opacity="1.000000" fill-rule="evenodd"/>
	<path id="path" d="M53.5 51.9C53.06 51.47 52.35 51.47 51.91 51.9C51.47 52.34 51.47 53.06 51.91 53.49L55.09 56.68C55.53 57.12 56.24 57.11 56.68 56.68C57.12 56.24 57.12 55.53 56.68 55.09L53.5 51.9Z" fill="#394240" fill-opacity="1.000000" fill-rule="evenodd"/>
	<path id="path" d="M5.23 19.53L14.98 25.15C15.51 25.47 16.2 25.28 16.51 24.75C16.82 24.21 16.64 23.52 16.1 23.21L6.36 17.58C5.82 17.27 5.13 17.45 4.82 18C4.51 18.53 4.69 19.22 5.23 19.53Z" fill="#394240" fill-opacity="1.000000" fill-rule="evenodd"/>
	<path id="path" d="M58.53 43.2L62.87 44.36C63.47 44.52 64.09 44.16 64.25 43.56C64.41 42.96 64.06 42.35 63.45 42.19L59.11 41.02C58.51 40.86 57.89 41.22 57.73 41.82C57.57 42.42 57.93 43.03 58.53 43.2Z" fill="#394240" fill-opacity="1.000000" fill-rule="evenodd"/>
	<path id="path" d="M13.5 36C13.5 35.37 12.99 34.87 12.37 34.87L1.12 34.87C0.5 34.87 0 35.37 0 36C0 36.61 0.5 37.12 1.12 37.12L12.37 37.12C12.99 37.12 13.5 36.61 13.5 36Z" fill="#394240" fill-opacity="1.000000" fill-rule="evenodd"/>
	<path id="path" d="M59.11 30.97L63.45 29.8C64.06 29.64 64.41 29.02 64.25 28.42C64.09 27.82 63.47 27.47 62.87 27.63L58.53 28.79C57.93 28.95 57.57 29.57 57.73 30.17C57.89 30.77 58.51 31.12 59.11 30.97Z" fill="#394240" fill-opacity="1.000000" fill-rule="evenodd"/>
	<circle id="circle" cx="36.000000" cy="36.000000" r="18.000000" fill="#FFD166" fill-opacity="1.000000"/>
	<path id="path" d="M16.51 47.25C16.2 46.71 15.51 46.52 14.97 46.83L5.23 52.46C4.69 52.77 4.51 53.46 4.82 54C5.13 54.53 5.82 54.72 6.36 54.41L16.1 48.78C16.63 48.47 16.82 47.78 16.51 47.25Z" fill="#394240" fill-opacity="1.000000" fill-rule="evenodd"/>
	<path id="path" d="M51.91 20.08C52.34 20.52 53.06 20.52 53.5 20.08L56.68 16.9C57.12 16.46 57.12 15.75 56.68 15.31C56.24 14.87 55.53 14.87 55.09 15.31L51.91 18.49C51.47 18.93 51.47 19.64 51.91 20.08Z" fill="#394240" fill-opacity="1.000000" fill-rule="evenodd"/>
	<path id="path" d="M24.75 55.48C24.21 55.17 23.52 55.35 23.21 55.89L17.58 65.64C17.28 66.17 17.45 66.86 18 67.17C18.53 67.48 19.22 67.29 19.53 66.76L25.16 57.01C25.47 56.48 25.29 55.79 24.75 55.48Z" fill="#394240" fill-opacity="1.000000" fill-rule="evenodd"/>
	<path id="path" d="M41.82 14.26C42.42 14.42 43.03 14.06 43.2 13.46L44.36 9.12C44.52 8.52 44.16 7.9 43.57 7.74C42.97 7.58 42.35 7.93 42.19 8.54L41.02 12.88C40.86 13.48 41.22 14.1 41.82 14.26Z" fill="#394240" fill-opacity="1.000000" fill-rule="evenodd"/>
	<path id="path" d="M36 58.5C35.37 58.49 34.87 59 34.87 59.62L34.87 70.87C34.87 71.49 35.37 72 36 72C36.62 72 37.12 71.49 37.12 70.87L37.12 59.62C37.12 59 36.62 58.5 36 58.5Z" fill="#394240" fill-opacity="1.000000" fill-rule="evenodd"/>
	<path id="path" d="M28.8 13.46C28.95 14.06 29.57 14.42 30.17 14.26C30.77 14.1 31.12 13.48 30.97 12.88L29.8 8.54C29.64 7.93 29.02 7.58 28.42 7.74C27.83 7.9 27.47 8.52 27.63 9.12L28.8 13.46Z" fill="#394240" fill-opacity="1.000000" fill-rule="evenodd"/>
	<path id="path" d="M48.78 55.89C48.47 55.36 47.79 55.17 47.25 55.48C46.71 55.79 46.52 56.48 46.83 57.02L52.46 66.76C52.77 67.3 53.46 67.48 54 67.17C54.53 66.86 54.72 66.17 54.41 65.63L48.78 55.89Z" fill="#394240" fill-opacity="1.000000" fill-rule="evenodd"/>
	<path id="path" d="M18.49 20.08C18.93 20.53 19.64 20.52 20.08 20.08C20.52 19.65 20.52 18.93 20.08 18.49L16.9 15.31C16.46 14.87 15.75 14.87 15.31 15.31C14.87 15.75 14.87 16.46 15.31 16.9L18.49 20.08Z" fill="#394240" fill-opacity="1.000000" fill-rule="evenodd"/>
	<path id="path" d="M66.76 52.46L57.02 46.83C56.48 46.53 55.79 46.71 55.48 47.25C55.17 47.78 55.36 48.47 55.89 48.78L65.64 54.41C66.18 54.72 66.86 54.54 67.17 54C67.48 53.46 67.3 52.77 66.76 52.46Z" fill="#394240" fill-opacity="1.000000" fill-rule="evenodd"/>
	<path id="path" d="M13.47 28.79L9.12 27.63C8.52 27.47 7.9 27.83 7.74 28.42C7.58 29.02 7.93 29.64 8.54 29.8L12.88 30.97C13.48 31.13 14.1 30.77 14.26 30.17C14.42 29.57 14.06 28.96 13.47 28.79Z" fill="#394240" fill-opacity="1.000000" fill-rule="evenodd"/>
	<path id="path" d="M36 22.5C35.37 22.5 34.87 23 34.87 23.62C34.87 24.24 35.37 24.75 36 24.75C42.21 24.75 47.25 29.78 47.25 36C47.25 36.62 47.75 37.12 48.37 37.12C48.99 37.12 49.5 36.62 49.5 36C49.5 28.54 43.45 22.5 36 22.5Z" fill="#394240" fill-opacity="1.000000" fill-rule="evenodd"/>
</svg>
